<?xml version="1.0" standalone="no"?>
<!DOCTYPE svg PUBLIC "-//W3C//DTD SVG 20010904//EN"
 "http://www.w3.org/TR/2001/REC-SVG-20010904/DTD/svg10.dtd">
<svg version="1.0" xmlns="http://www.w3.org/2000/svg"
 width="287.000000pt" height="238.000000pt" viewBox="0 0 287.000000 238.000000"
 preserveAspectRatio="xMidYMid meet">

<g transform="translate(0.000000,238.000000) scale(0.100000,-0.100000)"
fill="#000000" stroke="none">
<path d="M0 1190 l0 -1190 1435 0 1435 0 0 1190 0 1190 -1435 0 -1435 0 0
-1190z m1865 380 c87 -168 163 -315 169 -327 10 -20 30 15 181 312 94 183 173
330 177 327 4 -4 96 -266 206 -582 l199 -575 -210 -3 c-116 -1 -214 1 -217 5
-4 5 -49 139 -101 300 -51 161 -97 289 -101 285 -4 -4 -72 -142 -151 -307 -79
-165 -148 -300 -152 -300 -4 0 -75 119 -157 265 -82 146 -152 271 -157 278 -4
8 -42 -90 -95 -252 -48 -146 -94 -270 -102 -276 -17 -15 -44 -9 -57 11 -8 12
-2 34 22 85 26 55 371 1053 371 1073 0 17 35 -46 175 -319z m-953 258 c131
-34 245 -122 294 -226 67 -141 30 -352 -83 -473 -85 -91 -184 -136 -318 -146
-68 -5 -84 -3 -98 11 -12 13 -14 22 -7 36 8 15 26 18 112 22 77 3 115 9 150
25 70 32 141 103 174 176 27 57 29 71 29 177 0 100 -3 120 -23 157 -68 129
-231 203 -443 203 l-79 0 0 -535 0 -535 -205 0 -205 0 0 566 0 566 323 -5
c241 -3 336 -8 379 -19z"/>
</g>
</svg>
